<?xml version="1.0" encoding="UTF-8" standalone="no"?>
<!-- Generator: Adobe Illustrator 19.0.0, SVG Export Plug-In . SVG Version: 6.00 Build 0)  -->

<svg
   xmlns:dc="http://purl.org/dc/elements/1.1/"
   xmlns:cc="http://creativecommons.org/ns#"
   xmlns:rdf="http://www.w3.org/1999/02/22-rdf-syntax-ns#"
   xmlns:svg="http://www.w3.org/2000/svg"
   xmlns="http://www.w3.org/2000/svg"
   xmlns:sodipodi="http://sodipodi.sourceforge.net/DTD/sodipodi-0.dtd"
   xmlns:inkscape="http://www.inkscape.org/namespaces/inkscape"
   version="1.1"
   id="Capa_1"
   x="0px"
   y="0px"
   viewBox="0 0 511.99851 326.32901"
   xml:space="preserve"
   sodipodi:docname="eye.svg"
   width="511.9985"
   height="326.32901"
   inkscape:version="0.92.4 (5da689c313, 2019-01-14)"><metadata
   id="metadata911"><rdf:RDF><cc:Work
       rdf:about=""><dc:format>image/svg+xml</dc:format><dc:type
         rdf:resource="http://purl.org/dc/dcmitype/StillImage" /><dc:title></dc:title></cc:Work></rdf:RDF></metadata><defs
   id="defs909" /><sodipodi:namedview
   pagecolor="#ffffff"
   bordercolor="#666666"
   borderopacity="1"
   objecttolerance="10"
   gridtolerance="10"
   guidetolerance="10"
   inkscape:pageopacity="0"
   inkscape:pageshadow="2"
   inkscape:window-width="1920"
   inkscape:window-height="1001"
   id="namedview907"
   showgrid="false"
   fit-margin-top="0"
   fit-margin-left="0"
   fit-margin-right="0"
   fit-margin-bottom="0"
   inkscape:zoom="1.5781281"
   inkscape:cx="255.9995"
   inkscape:cy="163.1645"
   inkscape:window-x="-9"
   inkscape:window-y="-9"
   inkscape:window-maximized="1"
   inkscape:current-layer="Capa_1" />
<g
   id="g868"
   transform="translate(0,-92.835)">
	<g
   id="g866">
		<path
   d="M 508.745,246.041 C 504.171,239.784 395.188,92.835 255.997,92.835 c -139.191,0 -248.179,146.949 -252.748,153.2 -4.332,5.936 -4.332,13.987 0,19.923 4.569,6.257 113.557,153.206 252.748,153.206 139.191,0 248.174,-146.95 252.748,-153.201 4.338,-5.935 4.338,-13.992 0,-19.922 z M 255.997,385.406 c -102.529,0 -191.33,-97.533 -217.617,-129.418 26.253,-31.913 114.868,-129.395 217.617,-129.395 102.524,0 191.319,97.516 217.617,129.418 -26.253,31.912 -114.868,129.395 -217.617,129.395 z"
   id="path864"
   style="fill:#166502;fill-opacity:1"
   inkscape:connector-curvature="0" />
	</g>
</g>
<g
   id="g874"
   transform="translate(0,-92.835)">
	<g
   id="g872">
		<path
   d="m 255.997,154.725 c -55.842,0 -101.275,45.433 -101.275,101.275 0,55.842 45.433,101.275 101.275,101.275 55.842,0 101.275,-45.433 101.275,-101.275 0,-55.842 -45.433,-101.275 -101.275,-101.275 z m 0,168.791 c -37.23,0 -67.516,-30.287 -67.516,-67.516 0,-37.229 30.287,-67.516 67.516,-67.516 37.229,0 67.516,30.287 67.516,67.516 0,37.229 -30.286,67.516 -67.516,67.516 z"
   id="path870"
   style="fill:#166502;fill-opacity:1"
   inkscape:connector-curvature="0" />
	</g>
</g>
<g
   id="g876"
   transform="translate(0,-92.835)">
</g>
<g
   id="g878"
   transform="translate(0,-92.835)">
</g>
<g
   id="g880"
   transform="translate(0,-92.835)">
</g>
<g
   id="g882"
   transform="translate(0,-92.835)">
</g>
<g
   id="g884"
   transform="translate(0,-92.835)">
</g>
<g
   id="g886"
   transform="translate(0,-92.835)">
</g>
<g
   id="g888"
   transform="translate(0,-92.835)">
</g>
<g
   id="g890"
   transform="translate(0,-92.835)">
</g>
<g
   id="g892"
   transform="translate(0,-92.835)">
</g>
<g
   id="g894"
   transform="translate(0,-92.835)">
</g>
<g
   id="g896"
   transform="translate(0,-92.835)">
</g>
<g
   id="g898"
   transform="translate(0,-92.835)">
</g>
<g
   id="g900"
   transform="translate(0,-92.835)">
</g>
<g
   id="g902"
   transform="translate(0,-92.835)">
</g>
<g
   id="g904"
   transform="translate(0,-92.835)">
</g>
</svg>