<svg id="Capa_1" enable-background="new 0 0 512 512" height="512" viewBox="0 0 512 512" width="512" xmlns="http://www.w3.org/2000/svg"><g><path d="m421 30c-6.676 0-113.36 0-120 0v-30h-89.99v30c-27.461 0-92.633 0-120.01 0v482h330zm-180 30v-30h30v30h60v30h-150v-30zm150 422h-270v-422h30v60h210v-60h30z"/><path d="m246.235 181-21.213-21.213-35.419 35.419-18.231-18.231-21.214 21.213 39.445 39.445z"/><path d="m241 211h120v30h-120z"/><path d="m246.235 271-21.213-21.213-35.419 35.419-18.231-18.231-21.214 21.213 39.445 39.445z"/><path d="m241 301h120v30h-120z"/><path d="m225.022 339.787-35.419 35.419-18.231-18.231-21.214 21.213 39.445 39.445 56.632-56.633z"/><path d="m241 391h120v30h-120z"/></g></svg>