<?xml version="1.0" encoding="UTF-8" standalone="no"?>
<svg
   xmlns:dc="http://purl.org/dc/elements/1.1/"
   xmlns:cc="http://creativecommons.org/ns#"
   xmlns:rdf="http://www.w3.org/1999/02/22-rdf-syntax-ns#"
   xmlns:svg="http://www.w3.org/2000/svg"
   xmlns="http://www.w3.org/2000/svg"
   xmlns:xlink="http://www.w3.org/1999/xlink"
   xmlns:sodipodi="http://sodipodi.sourceforge.net/DTD/sodipodi-0.dtd"
   xmlns:inkscape="http://www.inkscape.org/namespaces/inkscape"
   id="Layer_1"
   height="428.93594"
   viewBox="0 0 428.93094 428.93594"
   width="428.93094"
   data-name="Layer 1"
   version="1.1"
   sodipodi:docname="as_bearbeiten.svg"
   inkscape:version="0.92.4 (5da689c313, 2019-01-14)">
  <metadata
     id="metadata30">
    <rdf:RDF>
      <cc:Work
         rdf:about="">
        <dc:format>image/svg+xml</dc:format>
        <dc:type
           rdf:resource="http://purl.org/dc/dcmitype/StillImage" />
        <dc:title></dc:title>
      </cc:Work>
    </rdf:RDF>
  </metadata>
  <defs
     id="defs28" />
  <sodipodi:namedview
     pagecolor="#ffffff"
     bordercolor="#666666"
     borderopacity="1"
     objecttolerance="10"
     gridtolerance="10"
     guidetolerance="10"
     inkscape:pageopacity="0"
     inkscape:pageshadow="2"
     inkscape:window-width="1920"
     inkscape:window-height="1001"
     id="namedview26"
     showgrid="false"
     inkscape:zoom="0.4609375"
     inkscape:cx="214.46273"
     inkscape:cy="214.46773"
     inkscape:window-x="-9"
     inkscape:window-y="-9"
     inkscape:window-maximized="1"
     inkscape:current-layer="Layer_1"
     fit-margin-top="0"
     fit-margin-left="0"
     fit-margin-right="0"
     fit-margin-bottom="0" />
  <linearGradient
     id="linear-gradient"
     gradientUnits="userSpaceOnUse"
     x1="256"
     x2="256"
     y1="422.776"
     y2="236.65199">
    <stop
       offset=".322"
       stop-color="#a163f5"
       id="stop2" />
    <stop
       offset=".466"
       stop-color="#b074ee"
       id="stop4" />
    <stop
       offset=".752"
       stop-color="#d8a1dd"
       id="stop6" />
    <stop
       offset=".898"
       stop-color="#efbad3"
       id="stop8" />
  </linearGradient>
  <linearGradient
     id="linear-gradient-2"
     gradientTransform="matrix(0.707,0.707,-0.707,0.707,183.884,-211.507)"
     x1="347.254"
     x2="347.254"
     xlink:href="#linear-gradient"
     y1="422.776"
     y2="236.65199" />
  <linearGradient
     id="linear-gradient-3"
     gradientTransform="matrix(0.707,0.707,-0.707,0.707,200.271,-218.295)"
     x1="363.64099"
     x2="363.64099"
     xlink:href="#linear-gradient"
     y1="422.776"
     y2="236.65199" />
  <linearGradient
     id="linear-gradient-4"
     gradientTransform="matrix(0.707,0.707,-0.707,0.707,216.029,-224.822)"
     x1="379.39899"
     x2="379.39899"
     xlink:href="#linear-gradient"
     y1="422.776"
     y2="236.65199" />
  <linearGradient
     id="linear-gradient-5"
     gradientTransform="matrix(0.707,0.707,-0.707,0.707,232.416,-231.61)"
     x1="395.78601"
     x2="395.78601"
     xlink:href="#linear-gradient"
     y1="422.776"
     y2="236.65199" />
  <path
     d="m 362.63273,1.7572186 a 6,6 0 0 0 -8.485,0 l -32.052,32.0520004 -2.061,-2.06 a 6,6 0 0 0 -8.485,0 l -48.766,48.766 a 6,6 0 0 0 0,8.485 l 2.06,2.061 L 28.656727,327.24722 c -0.027,0.027 -0.044,0.059 -0.069,0.086 l -1.444,2.464 -26.89999956,91.446 a 6,6 0 0 0 7.44899996,7.449 l 91.4459996,-26.9 2.464003,-1.443 c 0.027,-0.026 0.059,-0.044 0.086,-0.07 l 236.181,-236.192 2.061,2.06 a 6,6 0 0 0 8.485,0 l 48.766,-48.766 a 6,6 0 0 0 0,-8.485 l -2.06,-2.061 32.052,-32.052001 a 6,6 0 0 0 0,-8.485 z m -89.3,97.7890004 9.317,9.316001 -231.948003,231.944 -9.317,-9.316 z m 17.8,17.800001 20.453,20.453 -231.947003,231.945 -20.452,-20.452 z m -276.277003,296.729 6.158,-20.932 14.774,14.774 z m 34.044,-10.016 -24.027,-24.028 10.93,-37.152 50.249,50.249 z m 48.541,-16.513 -9.316,-9.317 231.944003,-231.944 9.316,9.317 z m 246.732003,-234.127 -68.661,-68.661001 40.281,-40.281 68.661,68.661001 z m 42.464,-55.069001 -56.056,-56.056 27.809,-27.809 56.056,56.056 z"
     id="path15"
     style="fill:#000000;fill-opacity:1"
     inkscape:connector-curvature="0" />
  <path
     d="m 291.77152,80.119024 19.30888,-19.308877 8.484,8.484 -19.30888,19.308877 z"
     id="path17"
     style="fill:#000000;fill-opacity:1;stroke-width:0.99984896"
     inkscape:connector-curvature="0" />
  <path
     d="m 308.15474,96.506024 19.30887,-19.308877 8.484,8.484 -19.30887,19.308873 z"
     id="path19"
     style="fill:#000000;fill-opacity:1;stroke-width:0.99984896"
     inkscape:connector-curvature="0" />
  <path
     d="m 323.90884,112.26473 19.30888,-19.308876 8.484,8.483996 -19.30888,19.30888 z"
     id="path21"
     style="fill:#000000;fill-opacity:1;stroke-width:0.99984896"
     inkscape:connector-curvature="0" />
  <path
     d="m 340.29277,128.65102 19.30887,-19.30887 8.484,8.484 -19.30887,19.30887 z"
     id="path23"
     style="fill:#000000;fill-opacity:1;stroke-width:0.99984896"
     inkscape:connector-curvature="0" />
</svg>
