<svg id="Capa_1" enable-background="new 0 0 511.975 511.975" height="512" viewBox="0 0 511.975 511.975" width="512" xmlns="http://www.w3.org/2000/svg"><g><path d="m.068 511.975h242v-211h-242v211zm30-181h182v151h-182z"/><path d="m471.377 0-229.309 115.653v-55.678h-242v211h242v-58.261c9.066-2.11 17.945-5.313 26.467-9.611 9.85-4.968 225.978-113.973 243.371-122.746zm.234 67.082-26.786 13.51-13.51-26.786 26.786-13.509zm-67.082.233 13.51 26.786-133.93 67.548-13.509-26.786zm-374.461 173.66v-151h182v42.447c-19.969 14.375-34.864 34.604-42.711 58.424l-4.694 14.247 14.247 4.694c10.878 3.584 22.023 5.528 33.159 5.883v25.306h-182.001zm174.44-55.978c8.42-15.172 21.173-27.479 37.007-35.464l2.298-1.159 13.51 26.786-2.298 1.159c-15.833 7.984-33.308 10.926-50.517 8.678z"/><path d="m106.068 414.762-30-30-21.213 21.213 51.213 51.213 81.214-81.213-21.214-21.213z"/></g></svg>