<?xml version="1.0" encoding="UTF-8" standalone="no"?>
<svg
   xmlns:dc="http://purl.org/dc/elements/1.1/"
   xmlns:cc="http://creativecommons.org/ns#"
   xmlns:rdf="http://www.w3.org/1999/02/22-rdf-syntax-ns#"
   xmlns:svg="http://www.w3.org/2000/svg"
   xmlns="http://www.w3.org/2000/svg"
   xmlns:sodipodi="http://sodipodi.sourceforge.net/DTD/sodipodi-0.dtd"
   xmlns:inkscape="http://www.inkscape.org/namespaces/inkscape"
   viewBox="0 0 10.236877 9.5909201"
   class="feather feather-x"
   version="1.1"
   id="svg2189"
   sodipodi:docname="delete_icon.svg"
   width="10.236877"
   height="9.5909204"
   style="fill:none;stroke:currentColor;stroke-width:2;stroke-linecap:round;stroke-linejoin:round"
   inkscape:version="0.92.4 (5da689c313, 2019-01-14)">
  <metadata
     id="metadata2195">
    <rdf:RDF>
      <cc:Work
         rdf:about="">
        <dc:format>image/svg+xml</dc:format>
        <dc:type
           rdf:resource="http://purl.org/dc/dcmitype/StillImage" />
        <dc:title></dc:title>
      </cc:Work>
    </rdf:RDF>
  </metadata>
  <defs
     id="defs2193" />
  <sodipodi:namedview
     pagecolor="#ffffff"
     bordercolor="#666666"
     borderopacity="1"
     objecttolerance="10"
     gridtolerance="10"
     guidetolerance="10"
     inkscape:pageopacity="0"
     inkscape:pageshadow="2"
     inkscape:window-width="1920"
     inkscape:window-height="1001"
     id="namedview2191"
     showgrid="false"
     fit-margin-top="0"
     fit-margin-left="0"
     fit-margin-right="0"
     fit-margin-bottom="0"
     inkscape:zoom="27.812867"
     inkscape:cx="1.762568"
     inkscape:cy="7.5093112"
     inkscape:window-x="-9"
     inkscape:window-y="-9"
     inkscape:window-maximized="1"
     inkscape:current-layer="svg2189" />
  <path
     style="fill:none;fill-opacity:1;stroke:none;stroke-width:4.70183992;stroke-linecap:round;stroke-linejoin:round;stroke-miterlimit:4.69999981;stroke-dasharray:none;stroke-opacity:0"
     d="M -1.6356166,10.771017 C -1.9599302,10.567253 -2.1129435,10.239128 -2.0683099,9.8431393 -2.0329569,9.5294853 -1.9644464,9.4539173 0.70820184,6.7805922 2.2153469,5.2730659 3.4484653,4.0072679 3.4484653,3.9677069 c 0,-0.03956 -1.199403,-1.269051 -2.66534056,-2.7322021 -1.4659375,-1.46315114 -2.71536784,-2.7546247 -2.77651164,-2.8699413 -0.3475778,-0.6555276 0.2951982,-1.4988496 1.04120441,-1.3660599 0.23093923,0.041107 0.63203503,0.412054 3.05278139,2.82331246 l 2.7869104,2.77598684 2.78605,-2.77773644 C 9.8453427,-2.3442365 10.510355,-2.967245 10.689767,-3.0046326 c 0.159939,-0.033329 0.330819,-0.00343 0.560099,0.097987 0.267062,0.1181339 0.357461,0.2081581 0.474332,0.4723648 0.26705,0.6037098 0.305561,0.5531827 -2.7550693,3.6145875 L 6.2176733,3.9324579 8.9293427,6.6470322 C 10.800428,8.5201223 11.675878,9.4460113 11.753489,9.6338943 12.07237,10.405853 11.180922,11.199151 10.438062,10.80449 10.331263,10.74775 9.0467587,9.5019253 7.5836073,8.0359873 6.1204563,6.5700492 4.8909653,5.3706459 4.8514043,5.3706459 c -0.03956,0 -1.306298,1.2340593 -2.8149736,2.7423534 L -0.70661536,10.85535 -1.0560091,10.8855 c -0.2635932,0.02275 -0.4059273,-0.0054 -0.5796075,-0.114487 z"
     id="path2740"
     inkscape:connector-curvature="0" />
  <path
     style="fill:#166502;fill-opacity:1;stroke:none;stroke-width:0.83332616;stroke-linecap:round;stroke-linejoin:round;stroke-miterlimit:4.69999981;stroke-dasharray:none;stroke-opacity:1"
     d="m 0.63739674,9.5860703 c -0.2779312,-0.03231 -0.5134977,-0.214465 -0.6061825,-0.468734 -0.022541,-0.06183 -0.029226,-0.108404 -0.02922,-0.203536 9.4e-6,-0.148648 0.02967,-0.247225 0.1097582,-0.364789 0.039913,-0.05859 0.565949,-0.559181 2.01471236,-1.91726 L 4.0871612,4.7937824 2.1078555,2.9372519 C 0.40340174,1.3385248 0.12290764,1.0704435 0.08792164,1.0067079 c -0.1564537,-0.28501934 -0.1008711,-0.60892884 0.1409595,-0.82144624 0.227687,-0.2000881 0.5561557,-0.2419837 0.83655976,-0.1067016 0.067978,0.0327957 0.3560692,0.2973557 2.0639876,1.89539774 L 5.1144113,3.8312389 7.0928528,1.9795284 C 9.0699117,0.12911236 9.0713707,0.12778276 9.1793457,0.07791206 c 0.137574,-0.0635419 0.229068,-0.0812451 0.379147,-0.0733608 0.5203263,0.0273345 0.8370803,0.5523114 0.5965343,0.988673 C 10.119147,1.0583177 9.8484297,1.3170922 8.1341417,2.9249826 7.0454419,3.9461107 6.1546881,4.7870263 6.1546881,4.7936842 c 0,0.00665 0.8910445,0.8475915 1.9800986,1.8687412 1.836458,1.7219529 1.9830653,1.8624529 2.0209943,1.9368179 0.06362,0.124737 0.08515,0.222422 0.07747,0.351564 -0.01742,0.293041 -0.224134,0.534033 -0.5293583,0.617158 -0.101393,0.02761 -0.281411,0.02761 -0.383524,-6e-6 -0.195084,-0.05276 -0.08178,0.04696 -2.2209693,-1.95454 L 5.1143271,5.7561283 3.1293868,7.6145113 c -1.8746023,1.755079 -1.9900645,1.860747 -2.0771134,1.900935 -0.13587346,0.06273 -0.27665536,0.08669 -0.41487666,0.07063 z"
     id="path2758"
     inkscape:connector-curvature="0" />
</svg>
