<?xml version="1.0" encoding="UTF-8" standalone="no"?>
<svg
   xmlns:dc="http://purl.org/dc/elements/1.1/"
   xmlns:cc="http://creativecommons.org/ns#"
   xmlns:rdf="http://www.w3.org/1999/02/22-rdf-syntax-ns#"
   xmlns:svg="http://www.w3.org/2000/svg"
   xmlns="http://www.w3.org/2000/svg"
   xmlns:sodipodi="http://sodipodi.sourceforge.net/DTD/sodipodi-0.dtd"
   xmlns:inkscape="http://www.inkscape.org/namespaces/inkscape"
   version="1.1"
   id="svg833"
   width="328.5097"
   height="480.12369"
   viewBox="0 0 328.50971 480.12369"
   sodipodi:docname="edit_icon_green_noLine.svg"
   inkscape:version="0.92.4 (5da689c313, 2019-01-14)">
  <metadata
     id="metadata839">
    <rdf:RDF>
      <cc:Work
         rdf:about="">
        <dc:format>image/svg+xml</dc:format>
        <dc:type
           rdf:resource="http://purl.org/dc/dcmitype/StillImage" />
        <dc:title />
      </cc:Work>
    </rdf:RDF>
  </metadata>
  <defs
     id="defs837">
    <style
       id="style851">.cls-1{fill:#35353d;}</style>
  </defs>
  <sodipodi:namedview
     pagecolor="#ffffff"
     bordercolor="#666666"
     borderopacity="1"
     objecttolerance="10"
     gridtolerance="10"
     guidetolerance="10"
     inkscape:pageopacity="0"
     inkscape:pageshadow="2"
     inkscape:window-width="1920"
     inkscape:window-height="1001"
     id="namedview835"
     showgrid="false"
     fit-margin-top="0"
     fit-margin-left="0"
     fit-margin-right="0"
     fit-margin-bottom="0"
     inkscape:zoom="0.77801172"
     inkscape:cx="-376.78098"
     inkscape:cy="134.55973"
     inkscape:window-x="-9"
     inkscape:window-y="-9"
     inkscape:window-maximized="1"
     inkscape:current-layer="Layer_1-2" />
  <g
     inkscape:groupmode="layer"
     inkscape:label="Image"
     id="g841"
     transform="translate(-92.676787,-110.64304)">
    <g
       id="Layer_1-2"
       data-name="Layer 1"
       transform="matrix(8.7119661,0,0,8.7764328,92.676787,110.60808)">
      <path
         class="cls-1"
         d="M 36,16.7 A 11.82,11.82 0 0 0 37.48,8.27 10.21,10.21 0 0 0 32.68,1.4 c -5.05,-3 -11.8,-1 -15,4.42 L 15.37,9.72 33.69,20.6 Z M 31.78,13.27 22.69,7.87 C 24.51,5.47 27.63,4.6 30,6 a 4.91,4.91 0 0 1 2.29,3.35 6.4,6.4 0 0 1 -0.51,3.92 z"
         id="path857"
         style="fill:#000000;fill-opacity:1;fill-rule:nonzero"
         inkscape:connector-curvature="0" />
      <path
         class="cls-1"
         d="M 1.51,53.93 3.08,54.71 18.35,46.46 31,25.19 12.62,14.3 0,35.58 0.08,51.41 a 3,3 0 0 0 1.43,2.52 z m 13,-32.32 9.17,5.44 L 14.51,42.47 5.39,47.4 5.34,37 Z"
         id="path859"
         style="fill:#000000;fill-opacity:1"
         inkscape:connector-curvature="0" />
    </g>
  </g>
</svg>
