<?xml version="1.0" encoding="UTF-8" standalone="no"?>
<svg
   xmlns:dc="http://purl.org/dc/elements/1.1/"
   xmlns:cc="http://creativecommons.org/ns#"
   xmlns:rdf="http://www.w3.org/1999/02/22-rdf-syntax-ns#"
   xmlns:svg="http://www.w3.org/2000/svg"
   xmlns="http://www.w3.org/2000/svg"
   xmlns:sodipodi="http://sodipodi.sourceforge.net/DTD/sodipodi-0.dtd"
   xmlns:inkscape="http://www.inkscape.org/namespaces/inkscape"
   id="Capa_1"
   enable-background="new 0 0 511.975 511.975"
   height="512"
   viewBox="0 0 511.975 511.975"
   width="512"
   version="1.1"
   sodipodi:docname="as_ziele.svg"
   inkscape:version="0.92.4 (5da689c313, 2019-01-14)">
  <metadata
     id="metadata15">
    <rdf:RDF>
      <cc:Work
         rdf:about="">
        <dc:format>image/svg+xml</dc:format>
        <dc:type
           rdf:resource="http://purl.org/dc/dcmitype/StillImage" />
      </cc:Work>
    </rdf:RDF>
  </metadata>
  <defs
     id="defs13" />
  <sodipodi:namedview
     pagecolor="#ffffff"
     bordercolor="#666666"
     borderopacity="1"
     objecttolerance="10"
     gridtolerance="10"
     guidetolerance="10"
     inkscape:pageopacity="0"
     inkscape:pageshadow="2"
     inkscape:window-width="1920"
     inkscape:window-height="1001"
     id="namedview11"
     showgrid="false"
     inkscape:zoom="0.4609375"
     inkscape:cx="256"
     inkscape:cy="256"
     inkscape:window-x="-9"
     inkscape:window-y="-9"
     inkscape:window-maximized="1"
     inkscape:current-layer="g8" />
  <g
     id="g8">
    <path
       d="m.068 511.975h242v-211h-242v211zm30-181h182v151h-182z"
       id="path2" />
    <path
       d="m471.377 0-229.309 115.653v-55.678h-242v211h242v-58.261c9.066-2.11 17.945-5.313 26.467-9.611 9.85-4.968 225.978-113.973 243.371-122.746zm.234 67.082-26.786 13.51-13.51-26.786 26.786-13.509zm-67.082.233 13.51 26.786-133.93 67.548-13.509-26.786zm-374.461 173.66v-151h182v42.447c-19.969 14.375-34.864 34.604-42.711 58.424l-4.694 14.247 14.247 4.694c10.878 3.584 22.023 5.528 33.159 5.883v25.306h-182.001zm174.44-55.978c8.42-15.172 21.173-27.479 37.007-35.464l2.298-1.159 13.51 26.786-2.298 1.159c-15.833 7.984-33.308 10.926-50.517 8.678z"
       id="path4"
       style="stroke:#000000;stroke-opacity:1" />
    <path
       d="m106.068 414.762-30-30-21.213 21.213 51.213 51.213 81.214-81.213-21.214-21.213z"
       id="path6" />
  </g>
</svg>
