<?xml version="1.0" encoding="UTF-8" standalone="no"?>
<svg
   xmlns:dc="http://purl.org/dc/elements/1.1/"
   xmlns:cc="http://creativecommons.org/ns#"
   xmlns:rdf="http://www.w3.org/1999/02/22-rdf-syntax-ns#"
   xmlns:svg="http://www.w3.org/2000/svg"
   xmlns="http://www.w3.org/2000/svg"
   xmlns:sodipodi="http://sodipodi.sourceforge.net/DTD/sodipodi-0.dtd"
   xmlns:inkscape="http://www.inkscape.org/namespaces/inkscape"
   viewBox="0 0 22 22"
   fill="none"
   stroke="currentColor"
   stroke-width="2"
   stroke-linecap="round"
   stroke-linejoin="round"
   class="feather feather-plus-circle"
   version="1.1"
   id="svg918"
   sodipodi:docname="plus_icon.svg"
   width="22"
   height="22"
   inkscape:version="1.0.1 (3bc2e813f5, 2020-09-07)">
  <metadata
     id="metadata924">
    <rdf:RDF>
      <cc:Work
         rdf:about="">
        <dc:format>image/svg+xml</dc:format>
        <dc:type
           rdf:resource="http://purl.org/dc/dcmitype/StillImage" />
        <dc:title></dc:title>
      </cc:Work>
    </rdf:RDF>
  </metadata>
  <defs
     id="defs922" />
  <sodipodi:namedview
     pagecolor="#ffffff"
     bordercolor="#666666"
     borderopacity="1"
     objecttolerance="10"
     gridtolerance="10"
     guidetolerance="10"
     inkscape:pageopacity="0"
     inkscape:pageshadow="2"
     inkscape:window-width="1920"
     inkscape:window-height="1001"
     id="namedview920"
     showgrid="false"
     fit-margin-top="0"
     fit-margin-left="0"
     fit-margin-right="0"
     fit-margin-bottom="0"
     inkscape:zoom="34.583333"
     inkscape:cx="11"
     inkscape:cy="11"
     inkscape:window-x="-9"
     inkscape:window-y="-9"
     inkscape:window-maximized="1"
     inkscape:current-layer="svg918" />
  <circle
     cx="11"
     cy="11"
     id="circle912"
     r="10" />
  <line
     x1="11"
     y1="7"
     x2="11"
     y2="15"
     id="line914" />
  <line
     x1="7"
     y1="11"
     x2="15"
     y2="11"
     id="line916" />
  <path
     style="fill:#166502;fill-opacity:1;stroke:none;stroke-width:0.086747"
     d="M 10.175904,21.958008 C 7.51813,21.740637 5.0994615,20.627478 3.2359919,18.764008 0.6644637,16.19248 -0.45363373,12.584794 0.2024534,8.9759036 0.8511827,5.4074859 3.3499199,2.3049249 6.7204819,0.8827831 7.6970732,0.4707298 8.6642497,0.2173745 9.785542,0.0798797 10.094315,0.0420175 10.414397,0.0284673 11,0.0284673 c 0.85147,0 1.268303,0.035898 2.024096,0.1743174 2.547458,0.4665528 4.911425,1.8854268 6.547298,3.9297454 2.080547,2.6000206 2.867803,5.9750919 2.154951,9.2385539 -0.816175,3.736477 -3.595707,6.828046 -7.22755,8.038932 -0.779835,0.260004 -1.440253,0.407485 -2.269879,0.5069 -0.45119,0.05407 -1.610628,0.07727 -2.053012,0.04109 z m 1.402409,-1.966514 c 2.206189,-0.155864 4.148587,-1.020963 5.706922,-2.541732 1.531307,-1.494393 2.434714,-3.355089 2.682244,-5.524461 0.04463,-0.391109 0.04463,-1.459493 0,-1.850602 C 19.719829,7.9042724 18.817286,6.0453576 17.285235,4.5502383 16.596988,3.8785829 15.868768,3.3593308 15.033735,2.9448219 13.718741,2.2920614 12.478728,2.0000586 11.014458,1.9983473 10.357443,1.9975794 10.010327,2.0254946 9.438554,2.1250818 6.8724074,2.5720347 4.6179538,4.1240442 3.2672983,6.373494 2.6121728,7.4645733 2.2074249,8.6544199 2.0467655,9.961523 c -0.057466,0.467537 -0.065176,1.520361 -0.014381,1.963778 0.206304,1.80094 0.8701915,3.400554 1.9799952,4.77073 0.2519711,0.311087 0.854723,0.922371 1.1755726,1.192215 1.7861986,1.502243 4.1031947,2.264832 6.3903607,2.103248 z"
     id="path1487" />
  <path
     style="fill:#166502;fill-opacity:1;stroke:none;stroke-width:0.086747"
     d="m 10.625094,15.909811 c -0.191331,-0.07345 -0.420508,-0.292794 -0.522596,-0.500172 l -0.07117,-0.144579 -0.0081,-1.640053 -0.0081,-1.640052 -1.6400523,-0.0081 -1.6400529,-0.0081 -0.1445784,-0.07117 C 6.2374288,11.72376 6.026506,11.38803 6.026506,11 c 0,-0.38803 0.2109228,-0.72376 0.5638554,-0.897502 l 0.1445784,-0.07117 1.6400529,-0.0081 1.6400523,-0.0081 0.0081,-1.6400523 0.0081,-1.6400529 0.07117,-0.1445784 C 10.27624,6.2374288 10.61197,6.026506 11,6.026506 c 0.38803,0 0.72376,0.2109228 0.897502,0.5638554 l 0.07117,0.1445784 0.0081,1.6400529 0.0081,1.6400523 1.640052,0.0081 1.640053,0.0081 0.144579,0.07117 C 15.762571,10.27624 15.973494,10.61197 15.973494,11 c 0,0.38803 -0.210923,0.72376 -0.563855,0.897502 l -0.144579,0.07117 -1.640053,0.0081 -1.640052,0.0081 -0.0081,1.640052 -0.0081,1.640053 -0.07117,0.144579 c -0.105041,0.213377 -0.330872,0.426771 -0.530808,0.501577 -0.221084,0.08272 -0.523963,0.08214 -0.7416,-0.0014 z"
     id="path1489" />
</svg>
